<mxfile host="Electron" modified="2023-04-11T09:18:01.064Z" agent="Mozilla/5.0 (Windows NT 10.0; Win64; x64) AppleWebKit/537.36 (KHTML, like Gecko) draw.io/21.1.2 Chrome/106.0.5249.199 Electron/21.4.3 Safari/537.36" etag="86zg3iq59MS0p84x4_Y9" version="21.1.2" type="device">
  <diagram id="esfpZpgDXAsVdFECxgzg" name="Page-1">
    <mxGraphModel dx="1948" dy="1928" grid="1" gridSize="10" guides="1" tooltips="1" connect="1" arrows="1" fold="1" page="1" pageScale="1" pageWidth="850" pageHeight="1100" math="0" shadow="0">
      <root>
        <mxCell id="0" />
        <mxCell id="1" parent="0" />
        <mxCell id="d0ucu0o-iv_U40lnH4kq-30" value="" style="rounded=1;whiteSpace=wrap;html=1;" vertex="1" parent="1">
          <mxGeometry x="740" y="106" width="120" height="60" as="geometry" />
        </mxCell>
        <mxCell id="7lDU9gg_2Zxta04Pnsv7-9" value="" style="rounded=1;whiteSpace=wrap;html=1;" parent="1" vertex="1">
          <mxGeometry x="490.28999999999996" y="377" width="120" height="60" as="geometry" />
        </mxCell>
        <mxCell id="7lDU9gg_2Zxta04Pnsv7-7" value="" style="rounded=1;whiteSpace=wrap;html=1;" parent="1" vertex="1">
          <mxGeometry x="485.28999999999996" y="374" width="120" height="60" as="geometry" />
        </mxCell>
        <mxCell id="7lDU9gg_2Zxta04Pnsv7-8" value="" style="rounded=1;whiteSpace=wrap;html=1;" parent="1" vertex="1">
          <mxGeometry x="478" y="367" width="120" height="60" as="geometry" />
        </mxCell>
        <mxCell id="7lDU9gg_2Zxta04Pnsv7-3" value="" style="rounded=1;whiteSpace=wrap;html=1;" parent="1" vertex="1">
          <mxGeometry x="92.48999999999998" y="98" width="159.8" height="80" as="geometry" />
        </mxCell>
        <mxCell id="7lDU9gg_2Zxta04Pnsv7-2" value="" style="rounded=1;whiteSpace=wrap;html=1;" parent="1" vertex="1">
          <mxGeometry x="100.19999999999999" y="106" width="159.8" height="80" as="geometry" />
        </mxCell>
        <mxCell id="7lDU9gg_2Zxta04Pnsv7-1" value="" style="rounded=1;whiteSpace=wrap;html=1;" parent="1" vertex="1">
          <mxGeometry x="108.10000000000001" y="113" width="159.8" height="80" as="geometry" />
        </mxCell>
        <mxCell id="Hn_TuwxSXXSeb5h-D6Jl-1" value="&lt;b&gt;&lt;font style=&quot;font-size: 18px;&quot;&gt;Polling handler&lt;/font&gt;&lt;/b&gt;" style="rounded=1;whiteSpace=wrap;html=1;" parent="1" vertex="1">
          <mxGeometry x="470" y="360" width="120" height="60" as="geometry" />
        </mxCell>
        <mxCell id="Hn_TuwxSXXSeb5h-D6Jl-3" value="&lt;b&gt;&lt;font style=&quot;font-size: 16px;&quot;&gt;Connection&lt;/font&gt;&lt;/b&gt;" style="rounded=1;whiteSpace=wrap;html=1;fontSize=18;" parent="1" vertex="1">
          <mxGeometry x="85" y="320" width="235" height="60" as="geometry" />
        </mxCell>
        <mxCell id="Hn_TuwxSXXSeb5h-D6Jl-4" value="&lt;b&gt;&lt;font style=&quot;font-size: 15px;&quot;&gt;Buffer&lt;/font&gt;&lt;/b&gt;" style="rounded=1;whiteSpace=wrap;html=1;fontSize=18;" parent="1" vertex="1">
          <mxGeometry x="246" y="360" width="70" height="20" as="geometry" />
        </mxCell>
        <mxCell id="Hn_TuwxSXXSeb5h-D6Jl-5" value="&lt;b&gt;&lt;font style=&quot;font-size: 15px;&quot;&gt;Socket&lt;/font&gt;&lt;/b&gt;" style="rounded=1;whiteSpace=wrap;html=1;fontSize=18;" parent="1" vertex="1">
          <mxGeometry x="90.49" y="358" width="67.51" height="20" as="geometry" />
        </mxCell>
        <mxCell id="Hn_TuwxSXXSeb5h-D6Jl-6" value="&lt;b&gt;&lt;font style=&quot;font-size: 12px;&quot;&gt;CallbackFunc&lt;/font&gt;&lt;/b&gt;" style="text;html=1;strokeColor=none;fillColor=none;align=center;verticalAlign=middle;whiteSpace=wrap;rounded=0;fontSize=18;" parent="1" vertex="1">
          <mxGeometry x="180.79" y="363" width="39.21" height="10" as="geometry" />
        </mxCell>
        <mxCell id="Hn_TuwxSXXSeb5h-D6Jl-7" value="&lt;b&gt;&lt;font style=&quot;font-size: 18px;&quot;&gt;Event Looper as Reactor&lt;/font&gt;&lt;/b&gt;" style="rounded=1;whiteSpace=wrap;html=1;fontSize=14;" parent="1" vertex="1">
          <mxGeometry x="117.5" y="120" width="157.5" height="80" as="geometry" />
        </mxCell>
        <mxCell id="Hn_TuwxSXXSeb5h-D6Jl-12" value="&lt;b&gt;ThreadPool&lt;/b&gt;" style="rounded=1;whiteSpace=wrap;html=1;fontSize=18;" parent="1" vertex="1">
          <mxGeometry x="-230" y="123" width="155" height="60" as="geometry" />
        </mxCell>
        <mxCell id="Hn_TuwxSXXSeb5h-D6Jl-14" value="" style="endArrow=classic;html=1;rounded=0;fontSize=18;entryX=0.333;entryY=0;entryDx=0;entryDy=0;entryPerimeter=0;" parent="1" target="Hn_TuwxSXXSeb5h-D6Jl-1" edge="1">
          <mxGeometry width="50" height="50" relative="1" as="geometry">
            <mxPoint x="270" y="200" as="sourcePoint" />
            <mxPoint x="506.81818181818176" y="350" as="targetPoint" />
          </mxGeometry>
        </mxCell>
        <mxCell id="Hn_TuwxSXXSeb5h-D6Jl-16" value="&lt;b&gt;&lt;font style=&quot;font-size: 14px;&quot;&gt;Register client Connection&lt;/font&gt;&lt;/b&gt;" style="text;html=1;strokeColor=none;fillColor=none;align=center;verticalAlign=middle;whiteSpace=wrap;rounded=0;fontSize=18;rotation=34;" parent="1" vertex="1">
          <mxGeometry x="286.16" y="255.64" width="241.71" height="40" as="geometry" />
        </mxCell>
        <mxCell id="Hn_TuwxSXXSeb5h-D6Jl-18" value="" style="endArrow=classic;html=1;rounded=0;fontSize=15;exitX=0;exitY=0;exitDx=0;exitDy=0;entryX=0.797;entryY=1.05;entryDx=0;entryDy=0;entryPerimeter=0;" parent="1" source="Hn_TuwxSXXSeb5h-D6Jl-1" target="Hn_TuwxSXXSeb5h-D6Jl-7" edge="1">
          <mxGeometry width="50" height="50" relative="1" as="geometry">
            <mxPoint x="370" y="350" as="sourcePoint" />
            <mxPoint x="260" y="220" as="targetPoint" />
          </mxGeometry>
        </mxCell>
        <mxCell id="Hn_TuwxSXXSeb5h-D6Jl-19" value="&lt;b&gt;&lt;font style=&quot;font-size: 14px;&quot;&gt;event-ready Connections&lt;/font&gt;&lt;/b&gt;" style="text;html=1;strokeColor=none;fillColor=none;align=center;verticalAlign=middle;whiteSpace=wrap;rounded=0;fontSize=15;rotation=35;" parent="1" vertex="1">
          <mxGeometry x="244" y="280" width="230" height="30" as="geometry" />
        </mxCell>
        <mxCell id="Hn_TuwxSXXSeb5h-D6Jl-21" value="&lt;b style=&quot;font-size: 14px;&quot;&gt;distribute&lt;br&gt;new client Connection&lt;/b&gt;" style="text;html=1;strokeColor=none;fillColor=none;align=center;verticalAlign=middle;whiteSpace=wrap;rounded=0;fontSize=15;rotation=0;" parent="1" vertex="1">
          <mxGeometry x="315.29" y="163" width="170" height="30" as="geometry" />
        </mxCell>
        <mxCell id="Hn_TuwxSXXSeb5h-D6Jl-36" value="" style="endArrow=classic;html=1;rounded=0;fontSize=12;exitX=0.5;exitY=1;exitDx=0;exitDy=0;" parent="1" target="Hn_TuwxSXXSeb5h-D6Jl-3" edge="1">
          <mxGeometry width="50" height="50" relative="1" as="geometry">
            <mxPoint x="203" y="200" as="sourcePoint" />
            <mxPoint x="270" y="160" as="targetPoint" />
          </mxGeometry>
        </mxCell>
        <mxCell id="Hn_TuwxSXXSeb5h-D6Jl-37" value="&lt;b style=&quot;font-size: 14px;&quot;&gt;Manages by mapping pair&lt;br&gt;&amp;lt;fd, Connection&amp;gt;&lt;/b&gt;" style="text;html=1;strokeColor=none;fillColor=none;align=center;verticalAlign=middle;whiteSpace=wrap;rounded=0;fontSize=12;" parent="1" vertex="1">
          <mxGeometry y="255.64" width="218" height="30" as="geometry" />
        </mxCell>
        <mxCell id="Hn_TuwxSXXSeb5h-D6Jl-43" value="&lt;span style=&quot;font-size: 14px;&quot;&gt;&lt;b&gt;FIFO&lt;/b&gt;&lt;/span&gt;" style="text;html=1;strokeColor=none;fillColor=none;align=center;verticalAlign=middle;whiteSpace=wrap;rounded=0;fontSize=13;" parent="1" vertex="1">
          <mxGeometry x="-197.5" y="93" width="90" height="30" as="geometry" />
        </mxCell>
        <mxCell id="7lDU9gg_2Zxta04Pnsv7-16" style="edgeStyle=orthogonalEdgeStyle;rounded=0;orthogonalLoop=1;jettySize=auto;html=1;fontSize=15;exitX=0;exitY=0.5;exitDx=0;exitDy=0;" parent="1" source="d0ucu0o-iv_U40lnH4kq-22" target="Hn_TuwxSXXSeb5h-D6Jl-2" edge="1">
          <mxGeometry relative="1" as="geometry">
            <mxPoint x="760" y="160" as="sourcePoint" />
          </mxGeometry>
        </mxCell>
        <mxCell id="7lDU9gg_2Zxta04Pnsv7-22" value="" style="endArrow=classic;html=1;rounded=0;shadow=1;strokeWidth=1;fontSize=14;exitX=1;exitY=0.5;exitDx=0;exitDy=0;" parent="1" edge="1" source="Hn_TuwxSXXSeb5h-D6Jl-12">
          <mxGeometry width="50" height="50" relative="1" as="geometry">
            <mxPoint x="-5" y="152.5" as="sourcePoint" />
            <mxPoint x="90" y="153" as="targetPoint" />
          </mxGeometry>
        </mxCell>
        <mxCell id="7lDU9gg_2Zxta04Pnsv7-24" value="&lt;font size=&quot;1&quot; style=&quot;&quot;&gt;&lt;b style=&quot;font-size: 14px;&quot;&gt;Manages&lt;/b&gt;&lt;/font&gt;" style="text;html=1;strokeColor=none;fillColor=none;align=center;verticalAlign=middle;whiteSpace=wrap;rounded=0;fontSize=14;" parent="1" vertex="1">
          <mxGeometry x="-75" y="123" width="95" height="30" as="geometry" />
        </mxCell>
        <mxCell id="7lDU9gg_2Zxta04Pnsv7-26" value="" style="endArrow=classic;html=1;rounded=0;shadow=1;strokeWidth=1;fontSize=12;" parent="1" edge="1">
          <mxGeometry x="1" y="-180" width="50" height="50" relative="1" as="geometry">
            <mxPoint x="171.89" y="98" as="sourcePoint" />
            <mxPoint x="172.26888198757752" y="0.40000000000009095" as="targetPoint" />
            <mxPoint y="-10" as="offset" />
          </mxGeometry>
        </mxCell>
        <mxCell id="fU4rXvOc1HCyIIU2ADZ5-10" value="&lt;b&gt;hit&lt;/b&gt;" style="text;html=1;strokeColor=none;fillColor=none;align=center;verticalAlign=middle;whiteSpace=wrap;rounded=0;fontSize=14;" parent="1" vertex="1">
          <mxGeometry x="200.00000000000003" y="-110" width="60" height="30" as="geometry" />
        </mxCell>
        <mxCell id="fU4rXvOc1HCyIIU2ADZ5-11" value="&lt;b&gt;query&lt;/b&gt;" style="text;html=1;strokeColor=none;fillColor=none;align=center;verticalAlign=middle;whiteSpace=wrap;rounded=0;fontSize=14;" parent="1" vertex="1">
          <mxGeometry x="80" y="-110" width="60" height="30" as="geometry" />
        </mxCell>
        <mxCell id="d0ucu0o-iv_U40lnH4kq-27" style="edgeStyle=orthogonalEdgeStyle;rounded=0;orthogonalLoop=1;jettySize=auto;html=1;exitX=0.75;exitY=1;exitDx=0;exitDy=0;entryX=0.75;entryY=0;entryDx=0;entryDy=0;" edge="1" parent="1" source="d0ucu0o-iv_U40lnH4kq-2" target="d0ucu0o-iv_U40lnH4kq-25">
          <mxGeometry relative="1" as="geometry" />
        </mxCell>
        <mxCell id="d0ucu0o-iv_U40lnH4kq-2" value="&lt;b&gt;&lt;font style=&quot;font-size: 18px;&quot;&gt;LRU Cache&lt;/font&gt;&lt;/b&gt;" style="rounded=1;whiteSpace=wrap;html=1;" vertex="1" parent="1">
          <mxGeometry x="112.39" y="-240" width="120" height="60" as="geometry" />
        </mxCell>
        <mxCell id="d0ucu0o-iv_U40lnH4kq-3" value="&lt;b&gt;&lt;font style=&quot;font-size: 14px;&quot;&gt;one Reactor per Thread&lt;/font&gt;&lt;/b&gt;" style="text;html=1;strokeColor=none;fillColor=none;align=center;verticalAlign=middle;whiteSpace=wrap;rounded=0;" vertex="1" parent="1">
          <mxGeometry x="-70" y="163" width="120" height="30" as="geometry" />
        </mxCell>
        <mxCell id="d0ucu0o-iv_U40lnH4kq-11" value="&lt;b&gt;Distribution Agent&lt;/b&gt;" style="rounded=1;whiteSpace=wrap;html=1;" vertex="1" parent="1">
          <mxGeometry x="485.29" y="83" width="120" height="60" as="geometry" />
        </mxCell>
        <mxCell id="Hn_TuwxSXXSeb5h-D6Jl-2" value="&lt;b&gt;Acceptor&lt;/b&gt;" style="rounded=1;whiteSpace=wrap;html=1;fontSize=18;" parent="1" vertex="1">
          <mxGeometry x="520" y="130" width="120" height="60" as="geometry" />
        </mxCell>
        <mxCell id="d0ucu0o-iv_U40lnH4kq-12" value="&lt;b style=&quot;font-size: 14px;&quot;&gt;Provide distribution method&lt;br&gt;Currently random distribution&lt;/b&gt;" style="text;html=1;strokeColor=none;fillColor=none;align=center;verticalAlign=middle;whiteSpace=wrap;rounded=0;" vertex="1" parent="1">
          <mxGeometry x="510" y="50" width="230" height="30" as="geometry" />
        </mxCell>
        <mxCell id="d0ucu0o-iv_U40lnH4kq-17" value="" style="endArrow=classic;html=1;rounded=0;exitX=0;exitY=0.5;exitDx=0;exitDy=0;entryX=1;entryY=0.5;entryDx=0;entryDy=0;" edge="1" parent="1" source="Hn_TuwxSXXSeb5h-D6Jl-2" target="Hn_TuwxSXXSeb5h-D6Jl-7">
          <mxGeometry width="50" height="50" relative="1" as="geometry">
            <mxPoint x="360" y="170" as="sourcePoint" />
            <mxPoint x="410" y="120" as="targetPoint" />
          </mxGeometry>
        </mxCell>
        <mxCell id="d0ucu0o-iv_U40lnH4kq-19" value="" style="endArrow=classic;html=1;rounded=0;entryX=0.75;entryY=0;entryDx=0;entryDy=0;" edge="1" parent="1" target="7lDU9gg_2Zxta04Pnsv7-1">
          <mxGeometry width="50" height="50" relative="1" as="geometry">
            <mxPoint x="520" y="160" as="sourcePoint" />
            <mxPoint x="285" y="170" as="targetPoint" />
          </mxGeometry>
        </mxCell>
        <mxCell id="d0ucu0o-iv_U40lnH4kq-20" value="" style="endArrow=classic;html=1;rounded=0;entryX=0.75;entryY=0;entryDx=0;entryDy=0;" edge="1" parent="1" target="7lDU9gg_2Zxta04Pnsv7-2">
          <mxGeometry width="50" height="50" relative="1" as="geometry">
            <mxPoint x="520" y="160" as="sourcePoint" />
            <mxPoint x="295" y="180" as="targetPoint" />
          </mxGeometry>
        </mxCell>
        <mxCell id="d0ucu0o-iv_U40lnH4kq-21" value="" style="endArrow=classic;html=1;rounded=0;exitX=0;exitY=0.5;exitDx=0;exitDy=0;entryX=0.936;entryY=-0.025;entryDx=0;entryDy=0;entryPerimeter=0;" edge="1" parent="1" source="Hn_TuwxSXXSeb5h-D6Jl-2" target="7lDU9gg_2Zxta04Pnsv7-3">
          <mxGeometry width="50" height="50" relative="1" as="geometry">
            <mxPoint x="550" y="190" as="sourcePoint" />
            <mxPoint x="305" y="190" as="targetPoint" />
          </mxGeometry>
        </mxCell>
        <mxCell id="d0ucu0o-iv_U40lnH4kq-26" style="edgeStyle=orthogonalEdgeStyle;rounded=0;orthogonalLoop=1;jettySize=auto;html=1;exitX=0.25;exitY=0;exitDx=0;exitDy=0;entryX=0.25;entryY=1;entryDx=0;entryDy=0;" edge="1" parent="1" source="d0ucu0o-iv_U40lnH4kq-25" target="d0ucu0o-iv_U40lnH4kq-2">
          <mxGeometry relative="1" as="geometry" />
        </mxCell>
        <mxCell id="d0ucu0o-iv_U40lnH4kq-25" value="&lt;font size=&quot;1&quot; style=&quot;&quot;&gt;&lt;b style=&quot;font-size: 14px;&quot;&gt;execute connection callback&lt;/b&gt;&lt;/font&gt;" style="rounded=1;whiteSpace=wrap;html=1;" vertex="1" parent="1">
          <mxGeometry x="112.38999999999999" y="-60" width="120" height="60" as="geometry" />
        </mxCell>
        <mxCell id="7lDU9gg_2Zxta04Pnsv7-17" value="&lt;b&gt;&lt;font style=&quot;font-size: 16px;&quot;&gt;client&lt;/font&gt;&lt;/b&gt;" style="text;html=1;strokeColor=none;fillColor=none;align=center;verticalAlign=middle;whiteSpace=wrap;rounded=0;fontSize=15;" parent="1" vertex="1">
          <mxGeometry x="780" y="145" width="60" height="30" as="geometry" />
        </mxCell>
        <mxCell id="d0ucu0o-iv_U40lnH4kq-28" value="" style="rounded=1;whiteSpace=wrap;html=1;" vertex="1" parent="1">
          <mxGeometry x="750" y="120" width="120" height="60" as="geometry" />
        </mxCell>
        <mxCell id="d0ucu0o-iv_U40lnH4kq-22" value="&lt;b&gt;&lt;font style=&quot;font-size: 18px;&quot;&gt;Client&lt;/font&gt;&lt;/b&gt;" style="rounded=1;whiteSpace=wrap;html=1;" vertex="1" parent="1">
          <mxGeometry x="760" y="130" width="120" height="60" as="geometry" />
        </mxCell>
      </root>
    </mxGraphModel>
  </diagram>
</mxfile>
